<svg t="1558706289464" class="icon" style="" viewBox="0 0 1024 1024" version="1.1" xmlns="http://www.w3.org/2000/svg" p-id="5136" xmlns:xlink="http://www.w3.org/1999/xlink" width="30" height="30">
	<path d="M322.32 306.28c8.16-3.4 16.42-6.82 25.22-8.06 0.68 16.6-1.28 33.18-0.8 49.78-0.9 71.98 4 143.86 11.12 215.44 1.02 7.2 1.48 14.46 1.86 21.74 44.64-6.02 90.1 1.76 132.3 16.72 18.78 6.5 37.48 14.44 52.94 27.2 6.1 5.38 12.38 12.26 12.32 20.92 0.9 13.14-5.48 25.64-13.92 35.3-14.64 16.98-34.44 28.46-54.44 38-51.88 23.26-109.56 31.02-166.04 29.84-13.44-141.76-26.96-283.96-56.18-423.54 18.74-7.32 37.12-15.5 55.62-23.34M396 630.7c3.12 26.04 6.64 52.06 11.26 77.86 22.08-15.7 44.36-31.28 65-48.88-6.7-4.54-14.48-7-21.92-10.04-17.84-7.04-35.76-14.06-54.34-18.94z m214.42-277c18.08-2.28 36.3-6.1 54.58-4.04 3.1 22.16 2.92 44.64 5.18 66.9 6.56 96.22 15.08 192.28 23.14 288.36-13.24-0.42-26.42-2.06-39.68-1.6-10.18-102.1-19.28-204.36-36.2-305.66-1.74-14.76-5.78-29.16-7.02-43.96zM569.54 435c8.58-0.72 17.24-0.96 25.8 0.28 2.98 20.86 4.72 41.9 6.98 62.84 0.44 2.88 0.26 5.8-0.18 8.68-8.22-0.12-16.4 0.32-24.58 0.82-1.82-17.92-4.54-35.76-6.58-53.66-0.46-6.34-2.62-12.58-1.44-18.96z m-32.98 6.66c8-0.22 15.94-3.7 23.96-1.8 2.22 22.98 8.78 45.82 7.14 69.02-6.26 1.08-12.46 2.58-18.5 4.56-4.08-13.36-5.48-27.42-8.34-41.08-1.64-10.2-4.74-20.28-4.26-30.7z m198.84 0.16c9.12-0.66 18.16 0.98 27.24 1.64-0.06 23.34-0.32 46.7 0.06 70.04-8.52 0.5-17.04 0.08-25.54-0.54 0.44-23.78-2.78-47.38-1.76-71.14z m-32.7 1.74c7.7-0.1 15.44-1.08 23.16-0.44 1.74 2.56 0.76 5.9 1.16 8.82 0.38 20.24 1.36 40.54-0.14 60.76-6.62 1.34-13.3 2.16-20.04 2.36-0.82-23.86-5.08-47.52-4.14-71.5zM551.54 535.7c17.78-4.3 36.22-8.06 54.58-5.74 6.4 26.82 8.38 54.46 11.72 81.76 4.04 34.98 6.52 70.16 11.24 105.06-13.96 2.82-28.28 3.66-42.46 4.78-11.26-57.66-22.72-115.26-33.92-172.92-0.46-4.22-3.06-8.94-1.16-12.94z m155.44 1.8c18.66-0.54 38.04-5.02 56.1 1.76-0.14 9.58 0.68 19.12 1.32 28.66 1.68 52.8 0.7 105.64 1.18 158.46-13.86-0.3-28.18 2.34-41.74-0.16-5.4-62.9-12.54-125.74-16.86-188.72z" fill="#D81E06" p-id="5137"></path>
</svg>