<svg t="1558706078607" class="icon" style="" viewBox="0 0 1024 1024" version="1.1" xmlns="http://www.w3.org/2000/svg" p-id="3907" xmlns:xlink="http://www.w3.org/1999/xlink" width="30" height="30">
	<path d="M1002.69056 605.55776a20.77184 20.77184 0 0 0-23.7312-4.1472c-128.128 61.10208-295.40352 94.75584-471.00928 94.75584-175.5648 0-342.85568-33.65376-470.9888-94.7456a20.76672 20.76672 0 0 0-27.55584 27.93984c58.22464 117.87776 263.24992 200.18176 498.54976 200.18176 235.40224 0 440.43264-82.33472 498.59584-200.20736a20.80256 20.80256 0 0 0-3.86048-23.77728z" fill="#009688" p-id="3908"></path>
	<path d="M97.44896 303.59552c0-42.55744-1.27488-78.1312-2.54464-108.83072h81.98144l3.81952 46.04416h1.91488c13.33248-22.32832 41.2928-54.41536 94.0544-54.41536 40.64768 0 71.79264 23.01952 85.14048 58.5984h1.29024c12.0576-18.14016 25.40544-32.09728 40.6528-41.856 17.14688-10.4704 36.21376-16.74752 59.10528-16.74752 59.72992 0 104.84224 46.04416 104.84224 148.60288v229.5552H473.64608V350.34624c0-49.536-14.60736-78.13632-45.74208-78.13632-22.88128 0-38.13888 16.74752-45.12768 36.97664-1.90464 7.68-3.16928 18.14016-3.16928 27.20256v228.16768H285.568V344.064c0-42.56256-13.98784-71.85408-45.11744-71.85408-24.79616 0-39.40864 20.93056-45.12256 37.67296-3.1744 8.37632-3.81952 18.14016-3.81952 27.2128v227.46624h-94.0544v-260.9664zM717.6704 399.18592c2.5344 43.94496 42.57792 64.88576 87.71072 64.88576 33.03936 0 59.71456-4.87424 85.7856-14.65344l12.70784 71.8592c-31.79008 14.65856-70.53824 21.632-112.48128 21.632-105.49248 0-165.86752-66.97984-165.86752-173.7216 0-86.51264 48.95232-182.0928 156.95872-182.0928 100.41856 0 138.5472 85.81632 138.5472 170.23488 0 18.13504-1.90976 34.18112-3.18464 41.86112H717.6704z m113.75616-72.55552c0-25.82016-10.1632-69.07904-54.65088-69.07904-40.67328 0-57.21088 41.1648-59.73504 69.07904h114.38592z" fill="#009688" p-id="3909"></path>
</svg>