<svg t="1558705909901" class="icon" style="" viewBox="0 0 1024 1024" version="1.1" xmlns="http://www.w3.org/2000/svg" p-id="1794" xmlns:xlink="http://www.w3.org/1999/xlink" width="30" height="30">
	<path d="M883.38705067 479.50506667c0.03822933 3.11842133 2.13538133 4.71313067 2.15176533 1.6384 0.008192-1.65205333-0.475136-3.00373333-1.07588267-3.00373334-0.60074667 0-1.08407467 0.6144-1.07588266 1.36533334m4.48648533 8.84189866c-1.081344 1.30798933-1.302528 3.36418133-0.78097067 7.27722667 0.46148267 3.49525333 0.31675733 5.45314133-0.40686933 5.45314133-0.622592 0-1.130496 0.98304-1.130496 2.18453334 0 1.45544533-0.729088 2.18453333-2.18453333 2.18453333s-2.18453333-0.729088-2.18453334-2.18453333c0-1.39537067-0.729088-2.18453333-2.015232-2.18453334-1.10865067 0-2.90542933 0.98304-3.99223466 2.18453334-1.08680533 1.20149333-3.129344 2.18453333-4.538368 2.18453333-1.83227733 0-2.56136533 0.61986133-2.56136534 2.18453333 0 1.20149333-0.70178133 2.18453333-1.56194133 2.18453334-0.86016 0-1.77493333 1.10592-2.03707733 2.4576l-0.47240534 2.4576-0.15018666-2.4576c-0.10103467-1.67936-0.83831467-2.4576-2.33198934-2.4576-1.45544533 0-2.18453333-0.729088-2.18453333-2.18453334 0-2.07530667-0.729088-2.18453333-14.7456-2.18453333s-14.7456-0.10922667-14.7456-2.18453333c0-1.91965867-0.729088-2.18453333-6.00746667-2.18453334-5.27837867 0-6.00746667 0.26487467-6.00746666 2.18453334 0 1.769472 0.729088 2.18453333 3.82293333 2.18453333s3.82293333 0.41506133 3.82293333 2.18453333c0 1.941504-0.729088 2.18453333-6.5536 2.18453334s-6.5536-0.24302933-6.5536-2.18453334c0-2.07530667-0.729088-2.18453333-14.7456-2.18453333s-14.7456 0.10922667-14.7456 2.18453333c0 1.45544533-0.729088 2.18453333-2.18453333 2.18453334s-2.18453333-0.729088-2.18453333-2.18453334c0-3.97038933-12.853248-3.20034133-13.69429334 0.8192-0.344064 1.65205333-1.29160533 5.70709333-2.105344 9.0112-0.81373867 3.30410667-1.78312533 7.80151467-2.154496 9.99424-0.36864 2.19272533-1.39537067 4.58752-2.28283733 5.32206934-0.884736 0.73454933-1.60836267 2.19272533-1.60836267 3.23857066 0 1.04584533-0.98304 3.15392-2.18453333 4.68036267-1.20149333 1.52917333-2.18453333 3.088384-2.18453333 3.47067733 0 1.089536-8.69444267 12.70852267-13.01981867 17.40526934-19.77002667 21.454848-37.54939733 37.715968-56.33911467 51.52768-1.20149333 0.884736-4.88789333 3.71370667-8.192 6.291456-3.30410667 2.57501867-9.20234667 6.86762667-13.1072 9.53821866-3.90485333 2.67332267-7.34549333 5.103616-7.64586666 5.40398934-0.96119467 0.96119467-35.30752 23.64757333-40.41386667 26.69226666-2.70336 1.613824-9.33888 5.68251733-14.7456 9.03850667-26.79057067 16.637952-74.53627733 42.45367467-101.5808 54.92462933-4.20522667 1.93877333-12.70033067 5.92827733-18.87709867 8.863744-6.17949867 2.93546667-11.43330133 5.33845333-11.67906133 5.33845334-0.24576 0-4.775936 2.01250133-10.067968 4.472832-11.911168 5.53506133-14.37696 6.62186667-23.273472 10.264576-3.90485333 1.59744-8.57429333 3.59355733-10.37653333 4.431872-4.74862933 2.21184-34.55931733 13.213696-44.78293334 16.52872533-4.80597333 1.55648-10.21269333 3.49252267-12.01493333 4.30353067-1.80224 0.80827733-5.34391467 1.982464-7.872512 2.61051733-2.52859733 0.62532267-4.890624 1.61655467-5.25380267 2.20091733-0.360448 0.58436267-2.13265067 1.06222933-3.93762133 1.06222934-1.80770133 0-5.586944 0.91477333-8.40226133 2.03707733a103.73802667 103.73802667 0 0 1-10.03246934 3.31776c-20.62199467 5.382144-25.25320533 6.47714133-30.33770666 7.176192-9.07400533 1.24245333-10.82436267 4.276224-6.79936 11.78282667 1.20149333 2.24187733 2.18453333 5.046272 2.18453333 6.23138133 0 1.941504 2.93546667 8.896512 5.55144533 13.14542933 0.55432533 0.90112 1.49640533 2.8672 2.097152 4.36906667 0.598016 1.50186667 1.581056 3.46794667 2.18453334 4.36906667 0.60074667 0.90112 1.53463467 2.64055467 2.06984533 3.866624 0.53794133 1.22606933 1.76401067 2.88631467 2.727936 3.68366933 0.96392533 0.80008533 1.753088 2.03707733 1.753088 2.74705067 0 3.91031467 20.38442667 25.25320533 25.11121067 26.29085866 1.72578133 0.37956267 3.72189867 1.39537067 4.43733333 2.25826134 0.75093333 0.90112 3.23037867 1.56740267 5.849088 1.56740266 2.50129067 0 7.47656533 1.040384 11.06193067 2.31287467 7.55848533 2.68424533 25.853952 2.36202667 33.82203733-0.59528533 2.40298667-0.892928 7.71140267-1.64386133 11.79648-1.66843734 4.20795733-0.02730667 8.73540267-0.72635733 10.4448-1.61109333 1.66024533-0.85742933 6.05115733-1.90327467 9.75940267-2.32379733 3.70551467-0.417792 7.27722667-1.41175467 7.938048-2.20637867 0.66082133-0.79735467 3.47886933-1.78858667 6.26414933-2.20637867 2.78528-0.417792 5.660672-1.35714133 6.38976-2.08622933 0.73181867-0.729088 3.38875733-1.65751467 5.90916267-2.05892267 2.52040533-0.40413867 5.61152-1.45544533 6.87035733-2.33745066 1.25883733-0.88200533 3.588096-1.60290133 5.17461333-1.60290134s4.05777067-0.90658133 5.49137067-2.01796266c1.4336-1.10865067 4.50833067-2.31560533 6.83758933-2.68424534 2.326528-0.36590933 5.06811733-1.42267733 6.09211734-2.351104 1.024-0.925696 2.91362133-1.68482133 4.19976533-1.68482133 2.228224 0 6.82939733-1.93604267 15.72864-6.61367467 2.22276267-1.16872533 4.849664-2.12445867 5.840896-2.12445866 0.98850133 0 3.10203733-0.71816533 4.69674667-1.59470934 1.59470933-0.87927467 6.18496-3.08565333 10.20177066-4.90427733 4.01408-1.818624 7.60763733-3.80381867 7.98173867-4.41002667 0.376832-0.60893867 1.80770133-1.10592 3.18122667-1.10592s3.38602667-0.98304 4.472832-2.18453333c1.08680533-1.20149333 3.05288533-2.18453333 4.36906666-2.18453333s3.28226133-0.98304 4.36906667-2.18453334c1.08680533-1.20149333 3.05288533-2.18453333 4.36906667-2.18453333s3.28226133-0.98304 4.36906666-2.18453333c1.08680533-1.20149333 2.67605333-2.18453333 3.52802134-2.18453334 0.85469867 0 4.83328-1.892352 8.84189866-4.202496 4.01134933-2.310144 15.64672-8.51421867 25.85941334-13.78440533 10.21269333-5.27018667 21.02613333-11.124736 24.02986666-13.01435733 8.27665067-5.19918933 9.50545067-5.93646933 13.78167467-8.257536 2.17088-1.17691733 5.398528-3.36418133 7.17073067-4.85512534 1.77493333-1.490944 4.54382933-3.04196267 6.15492266-3.44610133 1.61109333-0.40686933 2.93000533-1.18784 2.93000534-1.736704 0-0.55159467 1.236992-1.47182933 2.74705066-2.04526933 3.284992-1.25064533 9.486336-5.49137067 10.63867734-7.282688 0.45602133-0.704512 2.25826133-1.59470933 4.005888-1.97700267 1.74762667-0.385024 3.45156267-1.40629333 3.78197333-2.269184 0.33314133-0.86562133 1.31072-1.572864 2.179072-1.572864 0.86562133 0 4.06050133-1.96608 7.09973333-4.36906667 3.04196267-2.40298667 5.79447467-4.36906667 6.119424-4.36906666 0.87927467 0 20.37623467-14.52168533 23.977984-17.86129067 1.71758933-1.589248 3.79835733-2.891776 4.62301867-2.891776 0.827392 0 3.637248-1.96608 6.24503467-4.36906667 2.605056-2.40298667 5.21557333-4.36906667 5.79720533-4.36906666 0.581632 0 3.23037867-1.957888 5.88458667-4.35268267 2.654208-2.39479467 5.251072-4.36087467 5.767168-4.36906667 1.06496-0.01911467 11.30496-8.192 13.80625066-11.02097066 0.90112-1.01853867 3.78743467-3.18122667 6.41160534-4.80324267 2.62417067-1.62474667 6.06481067-4.27076267 7.64586666-5.87912533 1.581056-1.61109333 4.83874133-4.39364267 7.241728-6.18496 5.029888-3.74920533 4.76501333-3.51982933 13.238272-11.46333867 3.530752-3.31229867 8.388608-7.44925867 10.79159467-9.19415467 10.05704533-7.30453333 54.43310933-53.71767467 59.449344-62.18274133 2.73885867-4.620288 9.68840533-14.06293333 12.63752533-17.17589333 0.90385067-0.950272 1.64113067-2.21457067 1.64113067-2.80439467 0-0.59255467 1.8432-3.62359467 4.096-6.73655467 5.955584-8.22749867 9.0112-13.262848 9.0112-14.852096 0-0.76731733 0.98304-2.52859733 2.18453333-3.91304533 1.20149333-1.384448 2.18453333-3.31776 2.18453334-4.292608 0-0.97757867 0.69632-2.768896 1.548288-3.98404267 0.851968-1.21787733 1.89508267-4.06869333 2.32106666-6.33787733 0.425984-2.27191467 1.449984-4.38818133 2.277376-4.70493867 2.46306133-0.94481067 2.13538133-30.59712-0.36864-33.36328533-1.02946133-1.13595733-2.13538133-4.325376-2.4576-7.08881067-0.524288-4.456448-0.75912533-4.81962667-2.09442133-3.203072" fill="#00CBFE" p-id="1795"></path>
	<path d="M128.19114667 513.44725333c0.12288 32.33655467 0.516096 59.08343467 0.87108266 59.43842134 0.94208 0.94208 0.663552-108.699648-0.28945066-113.860608-0.44509867-2.40298667-0.70724267 22.08836267-0.581632 54.42218666M172.30506667 749.89568c0 2.44667733 0.51336533 3.49525333 1.712128 3.49525333 1.26702933 0 1.51825067-0.638976 0.96938666-2.4576-1.277952-4.227072-2.68151467-4.77047467-2.68151466-1.03765333m4.36906666 8.82824533c0 2.23095467 0.63624533 3.31776 2.18453334 3.72189867 1.654784 0.434176 2.18453333 1.490944 2.18453333 4.36906667s0.52974933 3.93489067 2.18453333 4.36906666c1.20149333 0.31402667 2.18453333 1.35441067 2.18453334 2.31287467 0 0.95573333 0.73728 1.73943467 1.6384 1.73943467a1.6384 1.6384 0 0 1 1.6384 1.630208c0 0.89565867 0.98304 2.24187733 2.18453333 2.99281066 1.20149333 0.75093333 2.18453333 1.982464 2.18453333 2.73885867 0 0.75639467 0.720896 1.376256 1.60017067 1.376256 0.87927467 0 2.12718933 0.98304 2.768896 2.18453333 0.64170667 1.20149333 1.82954667 2.18453333 2.63509333 2.18453334 0.80554667 0 2.05892267 0.712704 2.78254934 1.58378666 0.72362667 0.87381333 3.52529067 1.916928 6.22865066 2.32379734 2.70062933 0.40413867 5.17188267 1.41175467 5.48864 2.236416 0.37137067 0.96938667 2.37021867 1.51005867 5.64701867 1.52917333 2.78801067 0.01365333 7.036928 0.50517333 9.43991467 1.09226667 5.84635733 1.42813867 23.91790933 1.49367467 30.03733333 0.10922666 2.70336-0.61166933 9.70752-1.20149333 15.5648-1.31072 5.85728-0.106496 10.64686933-0.50244267 10.641408-0.876544-0.03549867-2.8672-6.50171733-22.36962133-7.65405867-23.08232533-0.802816-0.49425067-1.605632-2.760704-1.785856-5.03261867-0.20206933-2.58321067-1.30525867-5.11453867-2.94365866-6.750208l-2.61597867-2.61870933-0.74820267 3.97585067c-0.80554667 4.29533867 0.057344 8.63163733 1.531904 7.71959466 0.50244267-0.30856533 0.63624533 0.499712 0.294912 1.79950934l-0.61713066 2.36475733-2.01250134-2.482176c-1.10592-1.36533333-2.00977067-1.93877333-2.00977066-1.26976 0 0.66628267-0.98304 1.212416-2.18453334 1.212416-1.212416 0-2.18453333 0.729088-2.18453333 1.6384 0 0.909312 0.97211733 1.6384 2.18453333 1.6384 1.45544533 0 2.18453333 0.729088 2.18453334 2.18453333 0 1.60290133-0.729088 2.18453333-2.73066667 2.18453334-2.392064 0-2.73066667-0.47240533-2.73066667-3.82293334 0-3.63997867-0.18295467-3.82293333-3.82293333-3.82293333-2.670592 0-3.82293333 0.49425067-3.82293333 1.6384 0 1.18237867-1.212416 1.6384-4.36906667 1.6384-3.15665067 0-4.36906667-0.45602133-4.36906667-1.6384 0-1.318912-1.69847467-1.6384-8.73813333-1.6384-7.03965867 0-8.73813333 0.319488-8.73813333 1.6384 0 0.909312-0.97211733 1.6384-2.18453334 1.6384-1.212416 0-2.18453333-0.729088-2.18453333-1.6384 0-1.114112-1.114112-1.6384-3.47886933-1.6384-2.02888533 0-4.49467733-0.95300267-5.914624-2.28829867-2.66513067-2.50129067-6.99050667-2.05346133-6.99050667 0.72362667 0 0.86016-0.98304 1.564672-2.18453333 1.564672-1.769472 0-2.18453333 0.729088-2.18453334 3.82293333s-0.41506133 3.82293333-2.18453333 3.82293334c-1.45544533 0-2.18453333-0.729088-2.18453333-2.18453334 0-1.687552-0.729088-2.18453333-3.19761067-2.18453333-3.637248 0-4.96981333-1.12776533-8.81732267-7.462912-1.50186667-2.47125333-3.33141333-4.5056-4.06869333-4.521984-0.73454933-0.016384-2.09988267-1.50459733-3.03104-3.30683733-2.11899733-4.09873067-2.73066667-4.12603733-2.73066667-0.12834134" fill="#FC9300" p-id="1796"></path>
	<path d="M346.5216 148.48546133c-12.713984 4.23799467-21.979136 10.44753067-27.53604267 18.45384534a236.99182933 236.99182933 0 0 1-6.18222933 8.429568c-1.72578133 2.220032-4.01954133 6.070272-5.09815467 8.55790933s-2.49582933 4.849664-3.145728 5.25380267c-0.64989867 0.401408-1.18237867 1.482752-1.18237866 2.40571733 0 0.92023467-0.98304 2.92181333-2.18453334 4.45098667-1.20149333 1.52644267-2.18453333 3.596288-2.18453333 4.595712 0 0.999424-0.55432533 2.37294933-1.23426133 3.05288533-1.302528 1.302528-4.767744 10.297344-6.39522134 16.60791467-1.43086933 5.53506133 0.090112 7.36187733 7.35368534 8.82824533 6.76932267 1.36533333 47.90135467 12.156928 55.98139733 14.68279467 12.68394667 3.97038933 26.08059733 8.64802133 30.15748267 10.52945066 2.46852267 1.14141867 5.03534933 2.07530667 5.70436266 2.07530667 0.66901333 0 3.31776 0.94481067 5.88731734 2.097152 2.56955733 1.155072 7.37553067 3.14845867 10.67963733 4.43460267 3.30410667 1.286144 7.48202667 2.99281067 9.28426667 3.79835733 1.80224 0.802816 5.7344 2.44394667 8.73813333 3.64817067 12.70306133 5.09269333 21.594112 8.84189867 31.342592 13.213696 2.82077867 1.26429867 5.39579733 2.29922133 5.72347733 2.29922133 2.236416 0 74.59089067 36.17041067 89.636864 44.80750933 6.00746667 3.448832 14.36330667 8.09915733 18.56853334 10.33557334 4.20522667 2.23368533 9.36618667 5.16642133 11.4688 6.520832 2.10261333 1.35168 9.96693333 6.193152 17.47626666 10.76155733 78.667776 47.85220267 135.49294933 97.05335467 151.79776 131.42152533 9.96420267 21.00155733 8.25207467 35.10272-7.07242666 58.29700267-2.97642667 4.5056-5.308416 8.53333333-5.18280534 8.95112533 0.12561067 0.417792-1.236992 1.80224-3.02830933 3.07746134-1.79131733 1.27522133-3.25768533 2.924544-3.25768533 3.661824 0 1.97700267-21.50673067 22.95671467-36.59093334 35.69800533-7.20896 6.08938667-14.79202133 12.623872-16.85367466 14.52168533-2.05892267 1.89781333-4.09873067 3.448832-4.53290667 3.448832-1.36260267 0-26.12701867 18.36373333-26.12701867 19.37408 0 0.52974933-0.458752 0.679936-1.015808 0.33314134a1.20149333 1.20149333 0 0 0-1.64386133 0.385024c-0.34679467 0.55978667 0.15018667 0.90112 1.10318933 0.761856 0.95300267-0.139264 2.11626667-0.876544 2.58594134-1.63566934 0.46967467-0.761856 1.16599467-1.34075733 1.55101866-1.28887466 2.14903467 0.28672 2.88085333-0.057344 2.88085334-1.36260267 0-0.802816 0.622592-1.458176 1.38171733-1.458176 1.45544533 0 9.30065067-5.32206933 19.37134933-13.139968 3.30410667-2.56682667 6.99050667-5.38760533 8.192-6.27234133 18.78971733-13.811712 36.569088-30.072832 56.33911467-51.52768 4.325376-4.69674667 13.01981867-16.31573333 13.01981867-17.40526934 0-0.38229333 0.98304-1.941504 2.18453333-3.47067733 1.20149333-1.52644267 2.18453333-3.63451733 2.18453333-4.68036267s0.72362667-2.50402133 1.60836267-3.23857066c0.88746667-0.73454933 1.91419733-3.129344 2.28283733-5.32206934 0.37137067-2.19272533 1.34075733-6.69013333 2.154496-9.99424 0.81373867-3.30410667 1.76128-7.35914667 2.105344-9.0112 0.84104533-4.01954133 13.69429333-4.78958933 13.69429334-0.8192 0 1.45544533 0.729088 2.18453333 2.18453333 2.18453334s2.18453333-0.729088 2.18453333-2.18453334c0-2.07530667 0.729088-2.18453333 14.7456-2.18453333s14.7456 0.10922667 14.7456 2.18453333c0 1.941504 0.729088 2.18453333 6.5536 2.18453334s6.5536-0.24302933 6.5536-2.18453334c0-1.769472-0.729088-2.18453333-3.82293333-2.18453333s-3.82293333-0.41506133-3.82293333-2.18453333c0-1.91965867 0.729088-2.18453333 6.00746666-2.18453334 5.27837867 0 6.00746667 0.26487467 6.00746667 2.18453334 0 2.07530667 0.729088 2.18453333 14.7456 2.18453333s14.7456 0.10922667 14.7456 2.18453333c0 1.43086933 0.729088 2.18453333 2.10807467 2.18453334 1.318912 0 2.285568 0.92023467 2.58321066 2.4576l0.47240534 2.4576 0.15018666-2.4576c0.08192-1.38990933 0.86016-2.4576 1.785856-2.4576 0.909312 0 1.6384-0.97211733 1.6384-2.18453334 0-1.564672 0.729088-2.18453333 2.56136534-2.18453333 1.409024 0 3.45156267-0.98304 4.538368-2.18453333 2.59959467-2.87266133 6.00746667-2.87266133 6.00746666 0 0 1.45544533 0.729088 2.18453333 2.18453334 2.18453333s2.18453333-0.729088 2.18453333-2.18453333c0-1.20149333 0.49698133-2.18453333 1.10045867-2.18453334 0.688128 0 0.84923733-2.17088 0.425984-5.77262933-0.53794133-4.562944-0.311296-6.078464 1.081344-7.233536 1.57013333-1.302528 1.76128-0.98850133 1.76128 2.89450667 0 2.70062933 0.83012267 5.40945067 2.18453333 7.13250133 2.78801067 3.54440533 3.37783467 32.87176533 0.68539733 33.90395733-0.827392 0.31675733-1.851392 2.433024-2.277376 4.70493867-0.425984 2.269184-1.46909867 5.12-2.32106666 6.33787733-0.851968 1.21514667-1.548288 3.006464-1.548288 3.98404267 0 0.974848-0.98304 2.90816-2.18453334 4.292608-1.20149333 1.384448-2.18453333 3.145728-2.18453333 3.91304533 0 1.589248-3.055616 6.62459733-9.0112 14.852096-2.2528 3.11296-4.096 6.144-4.096 6.73655467 0 0.589824-0.73728 1.85412267-1.64113067 2.80439467-2.94912 3.11296-9.89866667 12.55560533-12.63752533 17.17589333-3.776512 6.37064533-11.69271467 15.15793067-34.60027733 38.40955733-10.96362667 11.13019733-19.91748267 20.52096-19.898368 20.873216 0.098304 1.76128 51.23549867-51.658752 56.57941333-59.10254933 13.44580267-18.735104 16.736256-23.494656 20.13320533-29.12529067l5.93373867-9.8304c3.12661333-5.177344 4.69947733-8.68352 4.69947733-10.48302933 0-0.79735467 0.66901333-1.70666667 1.482752-2.02069333 0.81646933-0.31402667 1.79677867-2.51221333 2.17634134-4.890624 0.37956267-2.37568 1.43086933-4.93704533 2.33745066-5.68797867 1.19057067-0.98577067 1.64932267-3.547136 1.64932267-9.183232 0-5.18826667 0.55159467-8.60433067 1.64386133-10.16081067 1.31345067-1.87869867 1.39537067-2.96004267 0.401408-5.431296-0.68266667-1.695744-1.29979733-6.10577067-1.37079466-9.797632-0.09284267-4.81416533-0.688128-7.33184-2.10807467-8.89924266-1.089536-1.204224-2.21184-4.063232-2.49582933-6.35153067-0.28398933-2.29102933-1.179648-4.923392-1.98792534-5.84635733-0.80827733-0.925696-1.82954667-2.86173867-2.27191466-4.30626134-1.38171733-4.52471467-13.795328-24.69341867-17.87767467-29.05156266-1.69028267-1.80224-3.91304533-5.054464-4.94250667-7.22807467-1.02673067-2.17088-6.73655467-9.05216-12.68667733-15.29173333-5.95012267-6.23684267-10.84074667-11.93847467-10.86805333-12.66756267-0.07918933-2.15995733-47.83854933-48.60859733-56.30088534-54.755328-2.40298667-1.74762667-6.08938667-5.005312-8.192-7.241728-2.10261333-2.236416-6.44164267-5.75624533-9.641984-7.82062933-3.20034133-2.06711467-7.86978133-5.75624533-10.37653333-8.200192-2.506752-2.44667733-6.52356267-5.72893867-8.92654933-7.29634134a90.505216 90.505216 0 0 1-8.46779734-6.43618133c-2.25553067-1.974272-4.63394133-3.588096-5.28930133-3.588096s-4.19703467-2.719744-7.86978133-6.04296533c-3.67274667-3.32322133-7.76874667-6.31876267-9.10404267-6.651904-1.33256533-0.335872-2.67605333-1.26429867-2.98461867-2.064384-0.30583467-0.80008533-2.92181333-2.818048-5.81085866-4.48375467-2.891776-1.66570667-7.274496-4.653056-9.73755734-6.63825067-2.465792-1.98519467-4.93431467-3.60994133-5.48590933-3.60994133-0.55159467 0-2.71428267-1.39810133-4.80324267-3.11022933-2.08896-1.70939733-5.02715733-3.751936-6.529024-4.538368-1.50186667-0.786432-4.74862933-3.072-7.21169066-5.08177067-2.465792-2.00977067-4.96981333-3.653632-5.56509867-3.653632-0.59528533 0-1.974272-0.98304-3.06107733-2.18453333-1.08680533-1.20149333-2.65147733-2.18453333-3.47886934-2.18453334-0.82466133 0-3.98677333-1.96608-7.028736-4.36906666-3.039232-2.40298667-6.06481067-4.36906667-6.72290133-4.36906667-0.65809067 0-2.21184-0.950272-3.45156267-2.113536-2.37841067-2.228224-23.12874667-14.270464-24.58965333-14.270464-0.46967467 0-2.25553067-1.10592-3.96765867-2.4576-4.63394133-3.65909333-28.655616-16.88644267-52.24311466-28.762112-11.4688-5.77536-21.58865067-10.91447467-22.48977067-11.419648-4.29806933-2.41937067-20.59195733-9.78944-21.635072-9.78944-0.64989867 0-4.52744533-1.662976-8.61525333-3.694592-14.19400533-7.05877333-19.67172267-9.412608-21.89448534-9.412608-1.2288 0-2.50129067-0.69085867-2.82350933-1.53463467-0.32494933-0.84650667-2.220032-1.892352-4.21341867-2.32379733-1.99338667-0.434176-4.59298133-1.46363733-5.77809066-2.28829867-1.18510933-0.82466133-3.15938133-1.499136-4.38545067-1.499136-1.22606933 0-4.06596267-0.98304-6.30510933-2.18453333-2.24187733-1.20149333-5.046272-2.18453333-6.22865067-2.18453333-1.18237867 0-3.76558933-0.70178133-5.73713067-1.55648-5.85454933-2.54225067-14.139392-5.087232-19.972096-6.135808-3.00373333-0.540672-7.18165333-1.68482133-9.28426666-2.54225067-2.10261333-0.85742933-7.26357333-2.06165333-11.4688-2.67332267-4.20522667-0.61166933-9.85770667-1.622016-12.56106667-2.244608-9.26788267-2.14084267-46.563328-1.33802667-54.0672 1.163264M885.538816 481.14346667c-0.01365333 2.34018133-0.25122133 2.64328533-1.07588267 1.36533333-1.38171733-2.138112-1.38171733-4.36906667 0-4.36906667 0.60074667 0 1.08407467 1.35168 1.07588267 3.00373334m-94.33634133 181.02135466c-5.873664 5.05173333-14.999552 13.91547733-14.66368 14.24042667 0.18568533 0.17749333 4.513792-3.555328 9.62013866-8.29576533 8.757248-8.12919467 11.91936-11.85655467 5.04354134-5.94466134M771.41333333 679.75850667l-3.2768 2.81531733 3.54986667-2.34837333c1.95242667-1.29160533 3.54986667-2.56136533 3.54986667-2.82077867 0-0.8192-0.46148267-0.53248-3.82293334 2.35383467" fill="#00CCFE" p-id="1797"></path>
	<path d="M226.42414933 226.96209067c-13.06350933 2.05892267-27.74903467 8.68898133-34.97437866 15.785984-3.72189867 3.653632-15.867904 19.406848-15.867904 20.58103466 0 0.606208-0.66901333 1.875968-1.48821334 2.82624-1.94696533 2.25006933-11.608064 23.98344533-11.657216 26.2144-0.01911467 0.94754133-0.98577067 3.68913067-2.146304 6.09211734-1.16053333 2.40298667-2.12718933 5.13092267-2.146304 6.06208-0.02184533 0.93115733-0.54340267 2.19818667-1.16053333 2.81531733-0.61713067 0.61713067-1.62747733 4.27895467-2.24733867 8.13738667-0.61713067 3.858432-1.83227733 8.10461867-2.70062933 9.43445333-0.86562133 1.32983467-1.57559467 3.923968-1.57559467 5.76170667 0 1.83773867-0.98304 6.13853867-2.18453333 9.55733333-1.20149333 3.41879467-2.18453333 7.84520533-2.18453333 9.838592s-0.77550933 5.45041067-1.72305067 7.684096c-0.94481067 2.23368533-1.98792533 7.74690133-2.31560533 12.25250133s-1.51825067 11.001856-2.646016 14.43703467c-1.31072 3.98404267-2.05346133 9.37710933-2.05346134 14.88759467 0 5.47498667-0.64443733 10.17992533-1.76128 12.85597866-1.245184 2.97915733-1.900544 8.85828267-2.236416 20.06493867-0.51882667 17.432576-2.64874667 32.104448-3.64817066 25.12759467-0.30037333-2.097152-0.41233067 21.99005867-0.24849067 53.52925866 0.237568 45.703168 0.62532267 58.82948267 1.91146667 64.659456 0.92842667 4.20522667 1.62474667 13.02801067 1.64113066 20.75306667 0.01365333 7.39191467 0.557056 15.40369067 1.20695467 17.80667733 0.647168 2.40298667 1.59470933 9.76213333 2.09988267 16.351232 0.507904 6.58909867 1.6384 13.96189867 2.51221333 16.384 0.876544 2.42210133 1.86504533 7.70594133 2.19818667 11.74459734s1.294336 8.708096 2.13538133 10.37653333c0.84104533 1.66843733 1.83773867 6.22865067 2.20910933 10.133504 0.37410133 3.90485333 1.40629333 9.06581333 2.29102934 11.4688 0.884736 2.40298667 1.630208 5.95012267 1.654784 7.880704 0.02730667 1.933312 0.73454933 5.128192 1.57013333 7.09973333 0.835584 1.974272 2.57774933 7.274496 3.86935467 11.780096 4.60663467 16.05358933 5.80539733 19.24846933 11.13838933 29.638656 1.122304 2.18453333 2.039808 4.71313067 2.039808 5.619712 0 0.90385067 0.73728 1.92785067 1.6384 2.27464534 0.90112 0.344064 1.6384 1.55921067 1.6384 2.70062933 0 1.138688 0.98304 3.32049067 2.18453333 4.84693333 1.20149333 1.52917333 2.18453333 3.27133867 2.18453334 3.87208534 0 1.851392 8.64802133 12.35080533 16.89736533 20.52096 15.04597333 14.89578667 39.51547733 19.43688533 79.22210133 14.69917866 17.678336-2.11080533 17.28785067-1.171456 11.06193067-26.52023466-2.400256-9.781248-5.33572267-22.454272-6.520832-28.16136534-6.67374933-32.11264-14.016512-83.08599467-16.523264-114.688-0.64443733-8.11008-1.6384-17.94048-2.20910933-21.84533333-3.23310933-22.11566933-4.06869333-183.51172267-1.06222934-205.34613333 0.53794133-3.90485333 1.48002133-14.71829333 2.09442134-24.02986667 0.6144-9.31157333 1.84046933-22.33685333 2.72520533-28.94506667 0.884736-6.60821333 2.15995733-17.16224 2.834432-23.45096533 0.67447467-6.28872533 1.67662933-12.279808 2.228224-13.30926933 0.55159467-1.02946133 1.01034667-3.74647467 1.02126933-6.04023467 0.01092267-2.29102933 0.770048-7.60763733 1.687552-11.812864 0.917504-4.20522667 2.38933333-11.82378667 3.268608-16.93013333 0.88200533-5.10634667 2.84808533-14.19946667 4.37179734-20.20693334s3.39968-13.62602667 4.169728-16.93013333c0.76731733-3.30410667 2.02069333-7.17073067 2.78528-8.593408 1.13595733-2.113536 1.11957333-2.83716267-0.08465067-3.96765867-3.47886933-3.268608-43.55413333-5.92008533-57.12554667-3.77924266M174.98658133 750.93333333c0.548864 1.818624 0.29764267 2.4576-0.96938666 2.4576-1.19876267 0-1.712128-1.048576-1.712128-3.49525333 0-3.73282133 1.40356267-3.18941867 2.68151466 1.03765333m4.41821867 7.91893334c0.93115733 1.80224 2.29649067 3.29045333 3.03104 3.30683733 0.73728 0.016384 2.56682667 2.05073067 4.06869333 4.521984 3.84750933 6.33514667 5.18007467 7.462912 8.81732267 7.462912 2.46852267 0 3.19761067 0.49698133 3.19761067 2.18453333 0 1.45544533 0.729088 2.18453333 2.18453333 2.18453334 1.769472 0 2.18453333-0.729088 2.18453333-3.82293334s0.41506133-3.82293333 2.18453334-3.82293333c1.20149333 0 2.18453333-0.704512 2.18453333-1.564672 0-2.777088 4.325376-3.22491733 6.99050667-0.72362667 1.41994667 1.335296 3.88573867 2.28829867 5.914624 2.28829867 2.36475733 0 3.47886933 0.524288 3.47886933 1.6384 0 0.909312 0.97211733 1.6384 2.18453333 1.6384 1.212416 0 2.18453333-0.729088 2.18453334-1.6384 0-1.318912 1.69847467-1.6384 8.73813333-1.6384 7.03965867 0 8.73813333 0.319488 8.73813333 1.6384 0 1.18237867 1.212416 1.6384 4.36906667 1.6384 3.15665067 0 4.36906667-0.45602133 4.36906667-1.6384 0-1.14414933 1.15234133-1.6384 3.82293333-1.6384 3.63997867 0 3.82293333 0.18295467 3.82293333 3.82293333 0 3.350528 0.33860267 3.82293333 2.73066667 3.82293334 2.00157867 0 2.73066667-0.581632 2.73066667-2.18453334 0-1.45544533-0.729088-2.18453333-2.18453334-2.18453333-1.212416 0-2.18453333-0.729088-2.18453333-1.6384 0-0.909312 0.97211733-1.6384 2.18453333-1.6384 1.20149333 0 2.18453333-0.54613333 2.18453334-1.212416 0-0.66901333 0.90385067-0.09557333 2.00977066 1.26976l2.01250134 2.482176 0.61713066-2.36475733c0.34133333-1.29979733 0.20753067-2.10807467-0.294912-1.79950934-1.47456 0.91204267-2.33745067-3.424256-1.531904-7.71959466l0.74820267-3.97585067 2.61597867 2.61870933c1.6384 1.63566933 2.74158933 4.16699733 2.94365866 6.750208 0.180224 2.27191467 0.98304 4.538368 1.785856 5.03261867 1.15234133 0.712704 7.61856 20.21512533 7.65405867 23.08232533 0.00546133 0.37410133-4.784128 0.770048-10.641408 0.876544-5.85728 0.10922667-12.86144 0.69905067-15.5648 1.31072-6.119424 1.384448-24.190976 1.318912-30.03733333-0.10922666-2.40298667-0.58709333-6.651904-1.07861333-9.43991467-1.09226667-3.2768-0.01911467-5.275648-0.55978667-5.64701867-1.52917333-0.31675733-0.82466133-2.78801067-1.83227733-5.48864-2.236416-2.70336-0.40686933-5.505024-1.449984-6.22865066-2.32379734-0.72362667-0.87108267-1.97700267-1.58378667-2.78254934-1.58378666-0.80554667 0-1.99338667-0.98304-2.63509333-2.18453334-0.64170667-1.20149333-1.88962133-2.18453333-2.768896-2.18453333-0.87927467 0-1.60017067-0.61986133-1.60017067-1.376256s-0.98304-1.98792533-2.18453333-2.73885867c-1.20149333-0.75093333-2.18453333-2.097152-2.18453333-2.99281066a1.6384 1.6384 0 0 0-1.6384-1.630208c-0.90112 0-1.6384-0.78370133-1.6384-1.73943467 0-0.958464-0.98304-1.998848-2.18453334-2.31287467-1.654784-0.434176-2.18453333-1.490944-2.18453333-4.36906666s-0.52974933-3.93489067-2.18453333-4.36906667c-1.548288-0.40413867-2.18453333-1.490944-2.18453334-3.72189867 0-3.997696 0.61166933-3.97038933 2.73066667 0.12834134" fill="#FC9300" p-id="1798"></path>
	<path d="M348.93277867 146.563072c-1.67662933 0.89838933-4.80324267 1.96061867-6.946816 2.36202667-8.060928 1.51278933-26.59396267 15.81056-26.59396267 20.51822933 0 0.79735467-1.24245333 2.87266133-2.760704 4.61482667-4.47010133 5.12-4.76228267 5.57056-5.50775467 8.54152533-0.39048533 1.55648-1.12503467 3.088384-1.630208 3.39968-1.90327467 1.17691733-14.56264533 29.19901867-15.77233066 34.91157333-0.37956267 1.80224-1.51005867 4.5056-2.506752 6.00746667-2.34837333 3.52802133-4.38545067 8.880128-6.23957334 16.384-5.709824 23.09870933-7.831552 32.69154133-8.69444266 39.3216-0.352256 2.70336-1.34621867 8.84736-2.20910934 13.65333333-3.54167467 19.718144-7.094272 52.65271467-9.83313066 91.20426667-0.876544 12.31530667-2.14903467 28.04394667-2.82624 34.95253333-1.57013333 16.00170667-1.61655467 147.99394133-0.057344 167.66293334 0.61986133 7.80970667 1.646592 20.83498667 2.28283733 28.94506666 1.93604267 24.70434133 3.260416 39.206912 4.93704533 54.0672 2.22549333 19.73725867 9.428992 65.72714667 11.09742934 70.85806934 0.41506133 1.277952 1.61655467 6.25595733 2.670592 11.06193066 7.59944533 34.64669867 10.87624533 42.73220267 16.19285333 39.94146134 0.958464-0.50244267 4.42914133-1.277952 7.71413333-1.72305067 5.414912-0.729088 13.45672533-2.64328533 38.51605334-9.16138667 4.64213333-1.20695467 9.40168533-2.70882133 10.57860266-3.33960533 1.17418667-0.62805333 3.15118933-1.14141867 4.39364267-1.14141867 1.24245333 0 4.096-0.98304 6.33787733-2.18453333 2.23914667-1.20149333 5.18826667-2.18453333 6.5536-2.18453333 1.36260267 0 4.31172267-0.98304 6.5536-2.18453334 2.23914667-1.20149333 4.83874133-2.18453333 5.76989867-2.18453333 0.933888 0 3.62632533-0.98304 5.98289067-2.18453333 2.35656533-1.20149333 5.13365333-2.18453333 6.17403733-2.18453334 1.03765333 0 2.18453333-0.47786667 2.54498133-1.06222933 0.36317867-0.58436267 2.72520533-1.589248 5.25380267-2.23095467 2.52859733-0.64170667 5.578752-1.61109333 6.78024533-2.15722666 1.20149333-0.54340267 5.62517333-2.30741333 9.8304-3.91850667 4.20522667-1.61109333 9.70752-3.84750933 12.22792534-4.972544 2.52040533-1.122304 5.12546133-2.04253867 5.791744-2.04253867 0.663552 0 3.02557867-0.93934933 5.24834133-2.08896 3.73828267-1.933312 11.681792-5.595136 20.96878933-9.66382933 2.10261333-0.92023467 4.56021333-2.097152 5.46133334-2.613248 0.90112-0.51882667 2.8672-1.482752 4.36906666-2.14357333s3.46794667-1.64386133 4.36906667-2.18453334c0.90112-0.540672 2.8672-1.55374933 4.36906667-2.2528 9.084928-4.22980267 64.64580267-32.11537067 68.26666666-34.26440533 2.40298667-1.42267733 5.84362667-3.36418133 7.64586667-4.31172267a164.82304 164.82304 0 0 0 7.64586667-4.40456533c2.40298667-1.47729067 5.84362667-3.44610133 7.64586666-4.374528 1.80224-0.93115733 5.24288-2.8672 7.64586667-4.30353067 2.40298667-1.43633067 5.84362667-3.39421867 7.64586667-4.35268266 4.399104-2.34018133 8.38587733-4.64213333 10.37653333-5.99381334 6.98231467-4.74043733 10.05704533-6.61367467 10.846208-6.61367466 0.50517333 0 3.86389333-1.96608 7.462912-4.36906667 3.59901867-2.40298667 6.807552-4.36906667 7.13250133-4.36906667 0.32494933 0 4.36360533-2.58048 8.97570134-5.7344 4.61482667-3.15392 10.43114667-7.03965867 12.926976-8.634368 2.49582933-1.59744 5.275648-3.57717333 6.176768-4.40456533 0.90112-0.827392 3.85024-2.96004267 6.5536-4.74043733 5.56509867-3.66455467 27.56334933-20.160512 28.39893333-21.29646934 0.30037333-0.40686933 3.49525333-3.11296 7.09973333-6.012928 3.60448-2.89723733 6.79936-5.603328 7.09973334-6.012928 0.30037333-0.40686933 3.74101333-3.383296 7.64586666-6.610944 28.43170133-23.50830933 50.24426667-56.18346667 50.24426667-75.27082666 0-36.29329067-59.99274667-94.91797333-158.37866667-154.76599467-7.50933333-4.56840533-15.37365333-9.40987733-17.47626666-10.76155733-2.10261333-1.35441067-7.26357333-4.28714667-11.4688-6.520832-4.20522667-2.236416-12.56106667-6.88674133-18.56853334-10.33557334-15.04597333-8.63709867-87.400448-44.80750933-89.636864-44.80750933-0.32768 0-2.90269867-1.03492267-5.72347733-2.29922133-9.74848-4.37179733-18.63953067-8.12100267-31.342592-13.213696-3.00373333-1.204224-6.93589333-2.84535467-8.73813333-3.64817067-1.80224-0.80554667-5.98016-2.51221333-9.28426667-3.79835733s-8.11008-3.27953067-10.67963733-4.43460267c-2.56955733-1.15234133-5.218304-2.097152-5.88731734-2.097152-0.66901333 0-3.23584-0.933888-5.70436266-2.07530667-4.07688533-1.88142933-17.473536-6.55906133-30.15748267-10.52945066-8.08004267-2.52586667-49.21207467-13.31746133-55.98139733-14.68279467-7.26357333-1.466368-8.78455467-3.293184-7.35368534-8.82824533 1.62747733-6.31057067 5.09269333-15.30538667 6.39522134-16.60791467 0.679936-0.679936 1.23426133-2.05346133 1.23426133-3.05288533 0-0.999424 0.98304-3.06926933 2.18453333-4.595712 1.20149333-1.52917333 2.18453333-3.530752 2.18453334-4.45098667 0-0.92296533 0.53248-2.00430933 1.18237866-2.40571733 0.64989867-0.40413867 2.06711467-2.76616533 3.145728-5.25380267 1.07861333-2.48763733 3.37237333-6.33787733 5.09815467-8.55790933a236.99182933 236.99182933 0 0 0 6.18222933-8.429568c5.70709333-8.22203733 15.01866667-14.35784533 28.15863467-18.55488 8.06912-2.57774933 43.655168-3.301376 53.444608-1.08680534 2.70336 0.61166933 6.144 1.261568 7.64586667 1.44725334 1.50186667 0.18295467 1.74762667 0.106496 0.54613333-0.172032-1.20149333-0.278528-2.87266133-1.073152-3.71643733-1.76674134-2.54498133-2.09988267-52.256768-2.31287467-56.131584-0.24302933m68.58615466 3.92669867c3.00373333 0.44782933 7.42741333 1.58378667 9.8304 2.52859733 2.40298667 0.94208 5.70436267 1.736704 7.33457067 1.76128 1.63293867 0.02730667 4.58205867 0.75093333 6.5536 1.605632 4.59298133 1.99338667 13.42395733 4.89335467 18.333696 6.01838933 2.10261333 0.483328 5.29749333 1.67662933 7.09973333 2.65147734 1.80224 0.97757867 4.28987733 1.777664 5.52686934 1.78312533 1.23426133 0.00273067 3.20034133 0.72635733 4.36906666 1.60836267 3.088384 2.33745067 4.5056 2.031616 1.73124267-0.37137067-1.29706667-1.12503467-4.36906667-2.367488-6.82666667-2.760704-2.46033067-0.393216-5.193728-1.43906133-6.078464-2.32379733-0.884736-0.884736-2.78528-1.60836267-4.22434133-1.60836267-1.43906133 0-4.22980267-0.70178133-6.201344-1.55648-6.340608-2.752512-14.33873067-5.136384-21.06436267-6.27780267-3.60448-0.60893867-7.32910933-1.79950933-8.27665066-2.646016-1.089536-0.966656-3.91031467-1.47729067-7.64586667-1.38171733l-5.922816 0.155648 5.46133333 0.81373867m66.90133334 20.75579733c1.35168 0.54340267 2.4576 1.49640533 2.4576 2.11626667 0 0.61986133 1.05949867 1.12776533 2.351104 1.12776533 2.33472 0 7.68682667 2.28829867 22.011904 9.412608 4.087808 2.031616 7.96535467 3.694592 8.61525333 3.694592 1.04311467 0 17.33700267 7.37006933 21.635072 9.78944 0.90112 0.50517333 11.02097067 5.644288 22.48977067 11.419648 23.58749867 11.87566933 47.60917333 25.10301867 52.24311466 28.762112 1.712128 1.35168 3.497984 2.4576 3.96765867 2.4576 1.46090667 0 22.21124267 12.04224 24.58965333 14.270464 1.23972267 1.163264 2.793472 2.113536 3.45156267 2.113536 0.65809067 0 3.68366933 1.96608 6.72290133 4.36906667 3.04196267 2.40298667 6.20407467 4.36906667 7.028736 4.36906666 0.827392 0 2.392064 0.98304 3.47886934 2.18453334 1.08680533 1.20149333 2.43029333 2.18453333 2.98461866 2.18453333 0.55159467 0-0.45329067-1.2288-2.23914666-2.73066667-1.785856-1.50186667-3.80381867-2.73066667-4.48648534-2.73066666-0.679936 0-3.72462933-1.96608-6.766592-4.36906667-3.039232-2.40298667-6.19588267-4.36906667-7.012352-4.36906667-0.81646933 0-1.87869867-0.638976-2.359296-1.41994666-1.32983467-2.15995733-6.463488-5.46679467-16.82363733-10.83255467-5.16642133-2.67605333-11.06466133-6.135808-13.1072-7.68682667-2.039808-1.55374933-7.151616-4.620288-11.35684267-6.815744-4.20522667-2.19818667-9.61194667-5.12546133-12.01493333-6.50990933-7.60490667-4.37725867-31.11867733-16.55330133-38.77546667-20.07586133-1.50186667-0.69085867-3.46794667-1.67662933-4.36906666-2.187264a139.27492267 139.27492267 0 0 0-4.096-2.19272534 194.19409067 194.19409067 0 0 1-4.36906667-2.318336c-5.65794133-3.12661333-18.18897067-8.773632-19.47511467-8.773632-0.81646933 0-3.342336-0.925696-5.61425066-2.056192-16.36215467-8.15377067-22.91029333-11.051008-24.97194667-11.051008-1.30525867 0-2.98461867-0.73728-3.73282133-1.6384-0.74820267-0.90112-2.15995733-1.60836267-3.137536-1.57013333-1.204224 0.049152-0.98304 0.39048533 0.679936 1.056768m189.2352 101.51253333c2.10261333 1.85412267 5.29749333 4.16699733 7.09973333 5.13911467 1.80224 0.97211733 4.98619733 3.170304 7.07515733 4.88516267 2.08896 1.71485867 4.24891733 3.11842133 4.800512 3.11842133 1.41175467 0-8.58248533-7.41649067-18.85525333-13.991936l-3.94308267-2.52586667 3.82293334 3.375104m24.40123733 16.64068267c4.78685867 3.91031467 16.38126933 11.08650667 15.433728 9.55733333-0.344064-0.557056-2.93546667-2.34018133-5.758976-3.96219733-2.82077867-1.622016-6.74474667-4.33083733-8.71901867-6.02112-1.974272-1.69028267-3.940352-3.055616-4.36906666-3.03650133-0.42871467 0.02184533 1.10592 1.57832533 3.41333333 3.46248533m29.9008 21.63234133c2.53405867 2.64055467 4.775936 4.579328 4.98619733 4.30626134 0.20753067-0.270336-1.86504533-2.43029333-4.60663466-4.800512l-4.98346667-4.308992 4.603904 4.80324266m11.23669333 8.011776c1.50186667 1.70666667 3.710976 3.60994133 4.91246934 4.22980267 2.29922133 1.18510933 2.23368533 1.11138133-3.82020267-4.06596267l-3.817472-3.268608 2.72520533 3.104768m8.18926934 5.77536l5.45860266 4.775936 4.366336 3.82020267-3.27406933-3.64270933c-1.79950933-2.00430933-4.25710933-4.153344-5.45860267-4.775936-1.20149333-0.622592-1.69301333-0.70178133-1.09226666-0.17749334m-306.60744534 86.72324267c2.20910933 1.18510933 4.76228267 2.162688 5.67159467 2.17361067 0.909312 0.008192 5.095424 1.728512 9.30065067 3.82020266s8.036352 3.80381867 8.511488 3.80654934c1.941504 0 14.97224533 6.67648 14.97224533 7.667712 0 0.589824 1.16872533 1.07042133 2.596864 1.07042133 1.42813867 0 3.22218667 0.753664 3.98677333 1.67662933 0.76458667 0.92023467 7.82882133 5.382144 15.69860267 9.91232 15.87063467 9.13681067 21.73883733 13.01981867 29.687808 19.652608 2.957312 2.465792 5.98562133 4.677632 6.73109333 4.9152 3.60174933 1.15234133 29.589504 28.72661333 32.923648 34.93341867 7.11338667 13.25192533 3.98404267 25.80753067-10.051584 40.35652267-10.63867733 11.026432-23.21339733 22.57442133-27.746304 25.47985066-2.27191467 1.45544533-6.04842667 4.37998933-8.3968 6.496256-2.34564267 2.11626667-5.54052267 4.50013867-7.09973333 5.29476267-1.55648 0.79735467-5.464064 3.17303467-8.68078933 5.28110933-12.09685333 7.929856-49.37864533 27.27662933-52.707328 27.353088-0.835584 0.01911467-2.47125333 0.75639467-3.637248 1.6384-1.16872533 0.88200533-3.09384533 1.60290133-4.284416 1.60290134-1.19057067 0-3.080192 0.83012267-4.19976534 1.8432-1.12776533 1.02126933-4.92612267 2.18453333-8.503296 2.60778666-3.588096 0.42052267-7.25265067 1.54555733-8.23296 2.523136-1.294336 1.29706667-3.842048 1.76401067-9.60375466 1.76401067-15.42826667 0-22.09928533-6.08392533-28.15044267-25.66826667-1.29979733-4.20522667-3.28226133-10.56768-4.407296-14.139392-1.138688-3.62359467-2.04253867-9.699328-2.04253867-13.75163733 0-3.99223467-0.73181867-9.67202133-1.62747733-12.62114133-2.31287467-7.63221333-2.42210133-79.888384-0.12561067-84.33390934 0.83831467-1.622016 2.02615467-7.61856 2.64055467-13.32565333 2.96277333-27.48142933 11.79101867-48.51848533 21.25277867-50.64567467 6.250496-1.40356267 31.490048 0.45602133 35.52324266 2.61597867" fill="#85F000" p-id="1799"></path>
</svg>